<?xml version="1.0" standalone="no"?>
<!DOCTYPE svg PUBLIC "-//W3C//DTD SVG 20010904//EN"
 "http://www.w3.org/TR/2001/REC-SVG-20010904/DTD/svg10.dtd">
<svg version="1.0" xmlns="http://www.w3.org/2000/svg"
 width="340.000000pt" height="340.000000pt" viewBox="0 0 340.000000 340.000000"
 preserveAspectRatio="xMidYMid meet">

<g transform="translate(0.000000,340.000000) scale(0.100000,-0.100000)"
fill="#000000" stroke="none">
<path d="M1530 2828 c-115 -23 -149 -33 -205 -58 -33 -15 -91 -48 -129 -74
-38 -25 -74 -46 -80 -46 -6 0 -33 11 -61 25 -42 20 -65 24 -143 25 -58 0 -91
-4 -87 -10 3 -5 23 -9 43 -9 50 2 121 -11 129 -23 10 -17 -16 -25 -105 -31
-62 -5 -107 -15 -159 -36 -85 -35 -160 -76 -189 -102 -11 -10 -25 -19 -30 -19
-12 0 -64 -52 -64 -63 0 -4 10 -2 23 5 45 25 91 38 102 27 11 -11 -29 -48 -52
-49 -20 0 -203 -184 -203 -203 0 -9 -4 -17 -8 -17 -26 0 -35 -76 -42 -345 -6
-216 -11 -293 -24 -335 -9 -30 -24 -95 -32 -145 -13 -77 -13 -105 -2 -189 7
-59 15 -90 18 -76 9 40 28 34 40 -12 6 -24 18 -60 26 -81 7 -20 14 -59 14 -85
0 -97 -64 -287 -135 -397 -34 -53 -41 -76 -55 -165 -4 -30 -11 -68 -15 -84 -7
-26 -6 -28 16 -22 13 4 42 11 64 17 22 6 56 15 75 21 19 6 46 12 60 13 14 1
48 6 75 11 28 4 56 7 63 5 7 -1 28 2 45 8 18 5 65 12 106 15 40 4 77 8 81 11
9 6 222 27 300 30 30 1 93 7 139 13 46 7 86 10 90 8 4 -3 54 1 111 9 58 7 139
13 180 13 41 -1 89 2 106 6 28 6 32 11 32 44 1 20 5 58 10 85 9 44 8 49 -15
67 -13 10 -44 26 -69 36 -24 9 -44 21 -44 25 0 5 -9 9 -20 9 -10 0 -32 5 -47
11 -65 26 -70 28 -190 59 -21 5 -69 14 -108 20 -126 20 -176 33 -172 44 10 29
326 1 477 -43 19 -5 46 -13 60 -16 40 -10 104 -37 161 -66 20 -11 45 -19 55
-19 9 0 47 29 83 64 36 35 82 77 101 94 l35 30 -24 19 -24 20 74 55 c41 31
112 75 159 98 47 23 93 46 102 51 10 5 25 9 33 9 8 0 23 4 33 9 41 22 132 33
237 28 151 -7 244 -28 349 -78 22 -10 41 -17 43 -16 1 2 -1 17 -7 33 -19 61
-29 112 -40 199 -6 50 -15 109 -20 133 -6 23 -10 53 -10 67 0 13 -4 34 -9 47
-5 13 -14 43 -21 68 -16 58 -29 97 -45 135 -8 17 -21 50 -31 75 -25 62 -111
226 -146 277 -15 23 -28 44 -28 47 0 7 -57 83 -118 156 -79 95 -331 302 -436
358 -33 18 -63 32 -68 32 -4 0 -27 9 -51 19 -23 11 -58 22 -77 25 -19 4 -60
11 -90 17 -30 5 -79 11 -108 13 -54 4 -89 21 -61 30 48 15 115 26 161 27 50 1
49 2 -32 15 -96 15 -117 15 -180 2z m206 -262 c33 -2 69 -8 80 -14 10 -5 39
-13 64 -17 175 -27 384 -168 463 -313 24 -44 26 -52 11 -52 -14 0 -91 37 -104
50 -13 13 -186 90 -203 90 -7 0 -17 4 -23 8 -5 5 -40 14 -78 21 -151 26 -276
-44 -276 -156 0 -85 46 -155 132 -199 44 -22 58 -24 208 -24 88 0 181 -5 207
-11 160 -36 203 -61 203 -115 0 -18 -4 -36 -10 -39 -5 -3 -10 -18 -10 -32 0
-43 -74 -183 -136 -255 -159 -189 -453 -344 -739 -390 -87 -14 -441 -15 -515
0 -119 22 -131 25 -136 33 -3 5 -14 9 -25 9 -17 0 -29 5 -79 31 -8 4 -35 18
-60 30 -60 31 -200 165 -200 193 0 12 17 37 38 57 39 37 107 89 116 89 3 0 24
13 48 28 24 16 65 39 93 53 61 30 69 36 112 79 53 54 68 94 68 182 -1 72 -3
79 -30 108 -57 59 -101 69 -200 44 -78 -19 -198 -127 -270 -243 -49 -78 -67
-101 -80 -101 -8 0 -15 6 -15 14 0 19 20 115 29 141 15 43 74 156 99 192 46
64 203 216 292 282 94 69 97 70 230 41 77 -17 132 -6 219 41 42 23 78 45 81
49 3 4 28 25 55 46 28 21 57 44 64 52 15 15 29 15 277 -2z m174 -332 c26 -22
31 -33 28 -61 -3 -32 -7 -37 -48 -50 -25 -8 -49 -19 -54 -24 -34 -32 -79 11
-74 72 3 36 8 47 37 66 44 30 72 29 111 -3z m-1031 -285 c55 -54 35 -124 -28
-104 -11 3 -22 1 -26 -5 -9 -14 -78 -13 -93 2 -25 25 -9 87 32 120 34 28 80
23 115 -13z"/>
<path d="M1295 2178 c-72 -25 -87 -32 -129 -59 -25 -15 -52 -42 -61 -60 -19
-36 -15 -49 40 -127 38 -56 74 -74 150 -77 l60 -3 -3 -48 c-2 -27 -5 -51 -7
-53 -3 -2 -28 -9 -57 -17 l-53 -12 80 -1 c85 -1 158 19 213 57 57 41 53 51 -7
20 -60 -31 -61 -31 -82 -12 -27 24 -52 72 -44 84 3 6 13 10 21 10 22 0 94 70
110 108 8 19 14 63 14 98 0 58 -2 64 -29 83 -24 17 -43 21 -108 20 -43 -1 -91
-6 -108 -11z"/>
<path d="M2465 1069 c-27 -6 -79 -14 -115 -20 -83 -13 -130 -30 -238 -82 -43
-21 -74 -48 -36 -32 31 13 81 18 87 8 4 -6 -24 -33 -61 -61 -103 -78 -263
-242 -305 -313 -35 -59 -38 -69 -35 -126 3 -52 9 -68 32 -92 34 -36 137 -79
203 -86 18 -2 47 -8 65 -13 56 -17 239 -25 578 -25 313 -1 424 6 436 24 3 5
13 9 23 9 39 0 111 50 144 98 40 61 61 236 36 299 -31 75 -41 92 -86 138 -52
54 -109 105 -119 105 -3 0 -24 13 -47 28 -104 69 -232 114 -377 131 -36 5 -81
11 -100 14 -19 2 -57 1 -85 -4z"/>
</g>
</svg>
